<svg id="Layer_1" data-name="Layer 1" xmlns="http://www.w3.org/2000/svg" viewBox="0 0 792 220"><defs><style>.cls-1{fill:#34c6f4;}</style></defs><path class="cls-1" d="M771.55,73.46q-4.09.29-8.34.29h-.76a30.25,30.25,0,1,1-57.6-17.89c-.9-.81-1.73-1.64-2.51-2.48A30.24,30.24,0,0,1,683.22,0H0V220H200.47a30.24,30.24,0,1,1,45.35-39.65q2.61-.89,5.37-1.64a30.74,30.74,0,0,1,61.31,0c22.23,6.09,37.49,18.6,37.49,33a21.08,21.08,0,0,1-1.73,8.25H612.14a30.25,30.25,0,0,1-30-26.41c-1.22.17-2.46.32-3.7.45a30.25,30.25,0,0,1-50.55,6.31,30.25,30.25,0,1,1-31.26-48.52,30.25,30.25,0,0,1,46.85-38.18,30.24,30.24,0,0,1,52.64-12.9A30.75,30.75,0,0,1,632,150.5a21,21,0,0,1,1.31,7.25,21.28,21.28,0,0,1-1.89,8.66A30.25,30.25,0,0,1,612.14,220H792V95.85A30.26,30.26,0,0,1,771.55,73.46ZM204.14,127a30.25,30.25,0,0,1-59.8,6.46q-4.11.28-8.34.29h-.76a30.25,30.25,0,1,1-57.61-17.89c-.89-.81-1.72-1.64-2.51-2.48a30.25,30.25,0,1,1,24.85-48q2.61-.88,5.37-1.64a30.75,30.75,0,0,1,61.32,0c22.22,6.09,37.48,18.6,37.48,33a23,23,0,0,1-4.9,13.76A30.14,30.14,0,0,1,204.14,127ZM447.5,89.81a30.23,30.23,0,0,1-41.64,21,30.74,30.74,0,0,1-55.88,9,30.7,30.7,0,0,1-4.73.37,30.27,30.27,0,0,1-29.59-36.56c-5-5.14-7.8-11-7.8-17.19a21.88,21.88,0,0,1,3-10.87,30.25,30.25,0,1,1,54.76-25.7c1.15-.1,2.3-.18,3.47-.24a30.24,30.24,0,0,1,59.66,4,30.25,30.25,0,1,1,18.75,56.1Z"/><path class="cls-1" d="M727.18,5.35c1.74-.59,3.54-1.14,5.38-1.64A30.1,30.1,0,0,1,733.05,0H722.21A30.76,30.76,0,0,1,727.18,5.35Z"/></svg>